<?xml version="1.0" encoding="iso-8859-1"?>
<!-- Uploaded to: SVG Repo, www.svgrepo.com, Generator: SVG Repo Mixer Tools -->
<!DOCTYPE svg PUBLIC "-//W3C//DTD SVG 1.1//EN" "http://www.w3.org/Graphics/SVG/1.1/DTD/svg11.dtd">
<svg fill="#ffffff" version="1.1" id="Capa_1" xmlns="http://www.w3.org/2000/svg"
	 width="800px" height="800px" viewBox="0 0 584.436 584.436"
	 xml:space="preserve">
<g>
	<g>
		<path d="M213.809,358.871c38.682,0,75.089-15.107,102.522-42.537c5.162-5.162,9.884-10.64,14.153-16.393l-4.156-22.632
			c0-8.893-7.206-16.099-16.099-16.099l-39.195-7.987c-7.668-9.56-14.547-20.352-19.195-28.149
			c13.342-8.755,23.868-21.943,29.722-37.681c9.798-0.606,17.564-8.724,17.564-18.675c0-8.253-5.346-15.245-12.757-17.742
			c-3.577-39.489-34.694-70.359-72.559-70.359c-37.864,0-68.979,30.87-72.559,70.359c-7.411,2.497-12.757,9.489-12.757,17.742
			c0,9.951,7.767,18.069,17.564,18.675c5.854,15.737,16.38,28.926,29.722,37.681c-4.629,7.77-11.478,18.513-19.113,28.048
			l-39.278,8.088c-8.893,0-16.099,7.206-16.099,16.099l-4.146,22.589C123.587,335.643,166.033,358.871,213.809,358.871z"/>
		<path d="M407.381,350.749c-15.532,22.029-34.578,41.087-56.61,56.635c-4.101,2.895-6.817,7.319-7.451,12.143
			c-0.633,4.828,0.777,9.602,3.976,13.439l115.873,136.61c7.852,9.422,19.253,14.859,31.229,14.859
			c10.769,0,21.022-4.324,28.878-12.179l48.981-48.981c8.345-8.348,12.656-19.241,12.136-30.68
			c-0.521-11.447-5.805-21.916-14.881-29.48L433.024,347.313c-3.25-2.709-7.228-4.171-11.267-4.171
			C416.112,343.143,410.738,345.985,407.381,350.749z"/>
		<path d="M213.809,427.623c118.077,0,213.811-95.732,213.811-213.812C427.62,95.735,331.885,0,213.809,0
			C95.732,0,0,95.735,0,213.812S95.735,427.623,213.809,427.623z M213.809,53.455c88.428,0,160.359,71.932,160.359,160.359
			c0,40.548-15.152,77.602-40.058,105.867c-14.802,16.799-33.052,30.471-53.639,39.924c-20.315,9.326-42.88,14.565-66.659,14.565
			s-46.344-5.242-66.659-14.565c-20.588-9.449-38.838-23.125-53.639-39.924c-24.906-28.266-40.062-65.319-40.062-105.867
			C53.449,125.387,125.384,53.455,213.809,53.455z"/>
	</g>
</g>
</svg>
